<svg width="18" height="18" viewBox="0 0 18 18" xmlns="http://www.w3.org/2000/svg">
    <g id="Frame">
        <path id="iconPrimary" d="M11.9258 16.1992H5.17578C3.3147 16.1992 1.80078 14.6849 1.80078 12.8242V6.07422C1.80078 4.21358 3.3147 2.69922 5.17578 2.69922H7.20078C7.57344 2.69922 7.87578 3.00156 7.87578 3.37422C7.87578 3.74687 7.57344 4.04922 7.20078 4.04922H5.17578C4.05913 4.04922 3.15078 4.95801 3.15078 6.07422V12.8242C3.15078 13.9404 4.05913 14.8492 5.17578 14.8492H11.9258C13.0424 14.8492 13.9508 13.9404 13.9508 12.8242V9.44746C13.9508 9.07481 14.2531 8.77246 14.6258 8.77246C14.9984 8.77246 15.3008 9.07481 15.3008 9.44746V12.8242C15.3008 14.6849 13.7869 16.1992 11.9258 16.1992Z" fill="#4B4B4B"/>
        <path id="iconPrimary_2" d="M11.6453 8.6247C11.4704 8.6247 11.2942 8.579 11.1342 8.48671C10.7488 8.26435 10.5528 7.82314 10.6468 7.38808L11.1083 5.25058L9.64006 3.63076C9.34124 3.30117 9.28982 2.82041 9.51262 2.43457C9.73587 2.04961 10.1762 1.85361 10.6126 1.94765L12.7492 2.40996L14.3686 0.9413C14.6986 0.641591 15.1798 0.590615 15.5652 0.81386C15.9506 1.03622 16.1462 1.47831 16.0517 1.91337L15.5903 4.04999L17.0585 5.66981C17.3573 5.9994 17.4092 6.47928 17.1864 6.86512C16.964 7.25184 16.5245 7.44783 16.0864 7.35291L13.9498 6.89061L12.3304 8.35926C12.137 8.53417 11.8923 8.6247 11.6453 8.6247ZM12.4635 5.37011L12.1827 6.67089L13.1684 5.77704C13.4132 5.55556 13.7485 5.46328 14.0706 5.53622L15.3692 5.81659L14.4762 4.83133C14.2561 4.58787 14.166 4.25214 14.2345 3.93133L14.5158 2.63055L13.5305 3.52353C13.2862 3.74413 12.9522 3.83729 12.6279 3.76435L11.3293 3.48398L12.2223 4.46924C12.4429 4.71181 12.5334 5.0493 12.4635 5.37011Z" fill="#4B4B4B"/>
        <path id="iconPrimary_3" d="M7.30731 11.9232C7.19129 11.9232 7.07484 11.8933 6.96981 11.8327C6.7158 11.6859 6.58572 11.3923 6.64769 11.1058L6.83007 10.2603L6.24911 9.6196C6.05223 9.40162 6.01795 9.08258 6.16473 8.82858C6.31151 8.57457 6.6077 8.44888 6.89203 8.50602L7.73709 8.68971L8.37781 8.10875C8.59534 7.91099 8.91527 7.87759 9.16883 8.02437C9.42284 8.17115 9.55292 8.46471 9.49095 8.75123L9.30858 9.59674L9.88953 10.2375C10.0864 10.4554 10.1207 10.7745 9.97391 11.0285C9.82713 11.2825 9.53182 11.4073 9.24661 11.351L8.40111 11.1673L7.76082 11.7483C7.63338 11.8634 7.47078 11.9232 7.30731 11.9232Z" fill="#4B4B4B"/>
    </g>
</svg>
