<svg width="24" height="24" viewBox="0 0 24 24" fill="none" xmlns="http://www.w3.org/2000/svg">
<g id="Frame">
<path id="iconPrimary" d="M15.9 21.6H6.90002C4.41858 21.6 2.40002 19.5808 2.40002 17.1V8.09998C2.40002 5.61912 4.41858 3.59998 6.90002 3.59998H9.60002C10.0969 3.59998 10.5 4.0031 10.5 4.49998C10.5 4.99685 10.0969 5.39998 9.60002 5.39998H6.90002C5.41116 5.39998 4.20002 6.6117 4.20002 8.09998V17.1C4.20002 18.5883 5.41116 19.8 6.90002 19.8H15.9C17.3889 19.8 18.6 18.5883 18.6 17.1V12.5976C18.6 12.1008 19.0032 11.6976 19.5 11.6976C19.9969 11.6976 20.4 12.1008 20.4 12.5976V17.1C20.4 19.5808 18.3815 21.6 15.9 21.6Z" fill="#0265DC"/>
<path id="iconPrimary_2" d="M15.5279 11.4996C15.2947 11.4996 15.0597 11.4386 14.8465 11.3156C14.3326 11.0191 14.0713 10.4308 14.1967 9.85073L14.8119 7.00073L12.8543 4.84097C12.4558 4.40152 12.3873 3.76051 12.6844 3.24605C12.982 2.73278 13.5691 2.47144 14.151 2.59683L16.9998 3.21323L19.159 1.25503C19.599 0.855414 20.2406 0.787446 20.7545 1.08511C21.2683 1.38159 21.5291 1.97104 21.4031 2.55112L20.7879 5.39995L22.7455 7.55971C23.1439 7.99916 23.2131 8.639 22.916 9.15345C22.6195 9.66908 22.0336 9.9304 21.4494 9.80384L18.6006 9.18743L16.4414 11.1456C16.1836 11.3789 15.8572 11.4996 15.5279 11.4996ZM16.6189 7.16011L16.2445 8.89448L17.5588 7.70269C17.8851 7.40738 18.3322 7.28433 18.7617 7.38159L20.4931 7.75541L19.3025 6.44174C19.0089 6.11713 18.8888 5.66948 18.9802 5.24174L19.3552 3.50737L18.0416 4.69799C17.7158 4.99214 17.2705 5.11635 16.838 5.01909L15.1066 4.64527L16.2972 5.95894C16.5914 6.28238 16.7121 6.73237 16.6189 7.16011Z" fill="#0265DC"/>
<path id="iconPrimary_3" d="M9.74409 15.9001C9.5894 15.9001 9.43413 15.8602 9.29409 15.7793C8.95542 15.5836 8.78198 15.1922 8.8646 14.8102L9.10777 13.6829L8.33316 12.8286C8.07066 12.5379 8.02495 12.1126 8.22066 11.7739C8.41637 11.4352 8.81129 11.2676 9.19039 11.3438L10.3171 11.5887L11.1714 10.8141C11.4615 10.5504 11.888 10.5059 12.2261 10.7016C12.5648 10.8973 12.7382 11.2887 12.6556 11.6707L12.4125 12.7981L13.1871 13.6524C13.4496 13.943 13.4953 14.3684 13.2996 14.7071C13.1039 15.0457 12.7101 15.2122 12.3298 15.1372L11.2025 14.8922L10.3488 15.6668C10.1789 15.8204 9.96206 15.9001 9.74409 15.9001Z" fill="#0265DC"/>
</g>
</svg>
