<svg width="800" height="800" viewBox="0 0 800 800" fill="none" xmlns="http://www.w3.org/2000/svg">
    <path d="M400 100C340.666 100 282.664 117.595 233.329 150.559C183.994 183.524 145.543 230.377 122.836 285.195C100.13 340.013 94.189 400.333 105.765 458.527C117.34 516.721 145.912 570.176 187.868 612.132C229.824 654.088 283.279 682.66 341.473 694.235C399.667 705.811 459.987 699.87 514.805 677.164C569.623 654.457 616.476 616.006 649.441 566.671C682.405 517.336 700 459.334 700 400C699.919 320.46 668.285 244.201 612.042 187.958C555.799 131.715 479.54 100.081 400 100ZM400 653.846C349.794 653.846 300.716 638.958 258.971 611.065C217.226 583.172 184.69 543.527 165.477 497.143C146.264 450.758 141.237 399.718 151.032 350.477C160.826 301.236 185.003 256.005 220.504 220.504C256.005 185.003 301.236 160.826 350.477 151.031C399.718 141.237 450.758 146.264 497.143 165.477C543.527 184.69 583.172 217.226 611.065 258.971C638.958 300.715 653.846 349.794 653.846 400C653.765 467.299 626.994 531.819 579.406 579.406C531.819 626.994 467.299 653.765 400 653.846ZM461.539 293.231L355.692 400L461.539 506.769C465.86 511.096 468.287 516.961 468.287 523.077C468.287 529.192 465.86 535.058 461.539 539.385C457.212 543.706 451.346 546.133 445.231 546.133C439.115 546.133 433.25 543.706 428.923 539.385L305.846 416.308C301.525 411.981 299.097 406.115 299.097 400C299.097 393.885 301.525 388.019 305.846 383.692L428.923 260.615C433.298 256.539 439.084 254.32 445.062 254.425C451.041 254.531 456.745 256.953 460.973 261.181C465.201 265.409 467.623 271.113 467.729 277.092C467.834 283.07 465.615 288.856 461.539 293.231Z"
          fill="black"/>
</svg>
