<svg width="24" height="24" viewBox="0 0 24 24" fill="none" xmlns="http://www.w3.org/2000/svg">
<g id="brand">
<rect id="bg" width="24" height="24" rx="4" fill="#FA0F00"/>
<path id="EC-logo" d="M18.6512 17.9971H15.7972C15.6733 17.9993 15.5515 17.9663 15.4474 17.9024C15.3432 17.8385 15.2613 17.7465 15.2122 17.6382L12.1122 10.7484C12.1033 10.7221 12.0859 10.6991 12.0625 10.6828C12.039 10.6665 12.0107 10.6577 11.9817 10.6577C11.9526 10.6577 11.9243 10.6665 11.9009 10.6828C11.8774 10.6991 11.86 10.7221 11.8512 10.7484L9.92118 15.1226C9.91056 15.1463 9.9063 15.1721 9.90877 15.1978C9.91125 15.2234 9.92039 15.2481 9.93537 15.2695C9.95035 15.2909 9.9707 15.3085 9.99459 15.3206C10.0185 15.3327 10.0451 15.3389 10.0722 15.3387H12.1942C12.2583 15.339 12.3209 15.3572 12.3742 15.391C12.4276 15.4249 12.4693 15.4729 12.4942 15.5292L13.4232 17.4954C13.4478 17.5505 13.4577 17.6107 13.4519 17.6704C13.4462 17.7301 13.425 17.7875 13.3902 17.8375C13.3554 17.8875 13.3082 17.9285 13.2527 17.9569C13.1972 17.9852 13.1352 18.0001 13.0722 18H5.35018C5.29215 17.9997 5.23509 17.9858 5.18408 17.9594C5.13307 17.933 5.0897 17.8951 5.05783 17.8489C5.02596 17.8027 5.00657 17.7498 5.0014 17.6947C4.99623 17.6397 5.00543 17.5843 5.02818 17.5334L9.94218 6.39425C9.99259 6.27648 10.0791 6.17589 10.1904 6.10558C10.3017 6.03527 10.4326 5.9985 10.5662 6.00006H13.4002C13.5338 5.99824 13.6649 6.0349 13.7762 6.10525C13.8876 6.17559 13.974 6.27633 14.0242 6.39425L18.9762 17.5211C18.9989 17.5718 19.0081 17.627 19.003 17.6819C18.9979 17.7368 18.9787 17.7896 18.9471 17.8357C18.9154 17.8819 18.8723 17.9199 18.8216 17.9464C18.7709 17.9729 18.714 17.987 18.6562 17.9876L18.6512 17.9971Z" fill="white"/>
</g>
</svg>
