<svg width="20" height="20" viewBox="0 0 20 20" fill="none" xmlns="http://www.w3.org/2000/svg">
<g id="Frame">
<path id="iconPrimary" d="M9.91819 13.2491C9.69944 13.2491 9.47874 13.1924 9.27952 13.0772C8.79807 12.7989 8.55491 12.2471 8.67307 11.7041L9.40061 8.33011L7.08225 5.77249C6.7092 5.36038 6.64475 4.76077 6.92307 4.27933C7.20139 3.79691 7.75803 3.55374 8.29612 3.67288L11.6701 4.40042L14.2278 2.08206C14.6409 1.70706 15.2405 1.64554 15.7209 1.92288C16.2024 2.2012 16.4455 2.75296 16.3274 3.29593L15.5998 6.66995L17.9182 9.22757C18.2912 9.6387 18.3547 10.2383 18.0774 10.7198C17.7991 11.2002 17.2493 11.4453 16.7053 11.3282L13.3313 10.5987L10.7727 12.918C10.5315 13.1368 10.2258 13.2491 9.91819 13.2491ZM10.8918 8.53324L10.2873 11.333L12.4094 9.40921C12.7121 9.1348 13.1301 9.02151 13.5315 9.10745L16.3332 9.71292L14.4094 7.59085C14.134 7.28616 14.0217 6.86526 14.1096 6.46487L14.7131 3.66702L12.5911 5.59085C12.2864 5.86624 11.8664 5.97757 11.4651 5.89065L8.66722 5.28713L10.5911 7.4092C10.8664 7.71291 10.9787 8.13285 10.8918 8.53324Z" fill="#292929"/>
<path id="iconPrimary_2" d="M3.34569 18.252C3.21678 18.252 3.08788 18.2188 2.97069 18.1514C2.68846 17.9883 2.54393 17.6622 2.61229 17.3438L2.91893 15.9258L1.94432 14.8516C1.72557 14.6104 1.68748 14.2549 1.85057 13.9727C2.01366 13.6905 2.34178 13.5498 2.65819 13.6143L4.07616 13.9209L5.15038 12.9463C5.39257 12.7266 5.74608 12.6895 6.02929 12.8526C6.31152 13.0157 6.45605 13.3418 6.38769 13.6602L6.08105 15.0782L7.05566 16.1524C7.27441 16.3936 7.3125 16.7491 7.14941 17.0313C6.98632 17.3135 6.65722 17.4522 6.34179 17.3897L4.92382 17.0831L3.8496 18.0577C3.708 18.1856 3.52733 18.252 3.34569 18.252Z" fill="#292929"/>
</g>
</svg>
