<svg width="20" height="20" viewBox="0 0 20 20" fill="none" xmlns="http://www.w3.org/2000/svg">
<g id="Frame">
<path id="iconPrimary" d="M13.2197 12.6572C13.0908 12.6572 12.96 12.624 12.8399 12.5537L9.61915 10.6582C9.39063 10.5234 9.25001 10.2773 9.25001 10.0117V5.01171C9.25001 4.59765 9.58595 4.26171 10 4.26171C10.4141 4.26171 10.75 4.59765 10.75 5.01171V9.583L13.6016 11.2607C13.958 11.4707 14.0772 11.9307 13.8672 12.2881C13.7275 12.5254 13.4766 12.6572 13.2197 12.6572ZM18.2773 12.8652C18.457 12.3428 18.5879 11.7988 18.6651 11.2471C18.7217 10.8369 18.4356 10.458 18.0254 10.4004C17.6113 10.3418 17.2363 10.6299 17.1787 11.04C17.1152 11.4961 17.0078 11.9453 16.8594 12.377C16.7246 12.7686 16.9326 13.1953 17.3242 13.3301C17.4053 13.3584 17.4873 13.3711 17.5684 13.3711C17.8799 13.3711 18.1709 13.1758 18.2773 12.8652ZM17.9502 8.85058C18.3535 8.75292 18.5996 8.34765 18.502 7.94531C18.3711 7.40722 18.1875 6.8789 17.9561 6.37402C17.7832 5.99707 17.334 5.83105 16.9609 6.00586C16.585 6.17871 16.4199 6.62402 16.5928 7.00098C16.7842 7.41797 16.9365 7.8545 17.0449 8.29883C17.1279 8.64258 17.4346 8.87207 17.7725 8.87207C17.8311 8.87207 17.8906 8.86522 17.9502 8.85058ZM16.0586 4.74511C16.3438 4.44628 16.333 3.9707 16.0332 3.68456C15.6348 3.30468 15.1953 2.95897 14.7275 2.65722C14.377 2.43261 13.9141 2.53417 13.6904 2.88183C13.4668 3.23046 13.5674 3.69433 13.915 3.91894C14.3037 4.16894 14.668 4.45507 14.9981 4.7705C15.1426 4.90917 15.3291 4.97753 15.5156 4.97753C15.7129 4.97753 15.9111 4.89941 16.0586 4.74511ZM12.248 2.30566C12.3262 1.89843 12.0596 1.50586 11.6533 1.42773C11.1123 1.32421 10.5566 1.27148 10 1.27148H9.93945C9.52539 1.27148 9.21972 1.60742 9.21972 2.02148C9.21972 2.43554 9.58593 2.77148 9.99999 2.77148C10.4619 2.77148 10.9228 2.81543 11.3701 2.90039C11.418 2.91016 11.4658 2.91406 11.5127 2.91406C11.8652 2.91406 12.1797 2.66406 12.248 2.30566ZM16.6123 15.751C16.8838 15.4385 16.8506 14.9648 16.5371 14.6934C16.2256 14.4228 15.752 14.4551 15.4795 14.7686C14.0996 16.3594 12.1025 17.2715 10 17.2715C6.00195 17.2715 2.75 14.0195 2.75 10.0215C2.75 7.10058 4.48828 4.47851 7.17773 3.33984C7.55957 3.17871 7.73828 2.73828 7.57617 2.35742C7.41504 1.97558 6.97168 1.7959 6.59375 1.95898C3.34766 3.33202 1.25 6.49706 1.25 10.0215C1.25 14.8467 5.1748 18.7715 10 18.7715C12.5381 18.7715 14.9483 17.6709 16.6123 15.751Z" fill="#292929"/>
</g>
</svg>
