<svg width="18" height="18" viewBox="0 0 18 18" fill="none" xmlns="http://www.w3.org/2000/svg">
    <mask id="mask0_3369_18536" style="mask-type:alpha" maskUnits="userSpaceOnUse" x="0" y="0" width="18" height="18">
        <path d="M16.2002 13.9501H2.7002C2.32754 13.9501 2.0252 13.6477 2.0252 13.2751C2.0252 12.9024 2.32754 12.6001 2.7002 12.6001H16.2002C16.5729 12.6001 16.8752 12.9024 16.8752 13.2751C16.8752 13.6477 16.5729 13.9501 16.2002 13.9501ZM9.9002 2.92506C6.50125 2.92506 3.6665 5.4596 3.05237 8.80055L2.27965 7.5046C2.08936 7.18424 1.67452 7.08053 1.35416 7.27081C1.03423 7.46153 0.929204 7.87593 1.12036 8.19629L2.73623 10.9068C2.8294 11.0633 2.98233 11.1753 3.15942 11.2175C3.21128 11.2298 3.26357 11.236 3.31587 11.236C3.44287 11.236 3.56855 11.2 3.67754 11.131L6.30503 9.46367C6.61968 9.26372 6.71284 8.84668 6.51334 8.53203C6.31338 8.21694 5.8959 8.12422 5.58169 8.32373L4.37221 9.09134C4.85324 6.35575 7.14664 4.27505 9.9002 4.27505C13.0019 4.27505 15.5252 6.91308 15.5252 10.1558C15.5252 10.5285 15.8275 10.8308 16.2002 10.8308C16.5729 10.8308 16.8752 10.5285 16.8752 10.1558C16.8752 6.16865 13.7463 2.92506 9.9002 2.92506Z"
              fill="#292929"/>
    </mask>
    <g mask="url(#mask0_3369_18536)">
        <rect width="18" height="18" fill="#222222"/>
    </g>
</svg>
