<svg width="18" height="18" viewBox="0 0 18 18" fill="none" xmlns="http://www.w3.org/2000/svg">
<g id="Frame">
<path id="iconPrimary" d="M6.96843 4.50006H14.5727L13.025 2.9523C12.7613 2.68863 12.7613 2.26148 13.025 1.9978C13.2886 1.73413 13.7158 1.73413 13.9795 1.9978L16.6773 4.69561C16.9409 4.95884 16.9409 5.38599 16.6777 5.64966L13.9799 8.35186C13.8481 8.48413 13.6754 8.55005 13.5022 8.55005C13.3295 8.55005 13.1573 8.48413 13.0254 8.35273C12.7613 8.0895 12.7613 7.66191 13.0245 7.39824L14.5703 5.85005H6.96843C4.73513 5.85005 2.91799 7.66674 2.91799 9.90005C2.91799 12.1334 4.73513 13.95 6.96843 13.95H10.3324C10.7051 13.95 11.0074 14.2524 11.0074 14.625C11.0074 14.9977 10.7051 15.3 10.3324 15.3H6.96843C3.9907 15.3 1.56799 12.8778 1.56799 9.90005C1.56799 6.92232 3.99069 4.50006 6.96843 4.50006Z" fill="#292929"/>
</g>
</svg>
