<svg width="18" height="18" viewBox="0 0 18 18" fill="none" xmlns="http://www.w3.org/2000/svg">
<g id="Frame">
<path id="iconPrimary" d="M11.025 7.1999H13.95V7.53916C13.95 7.91181 14.2523 8.21416 14.625 8.21416C14.9976 8.21416 15.3 7.91181 15.3 7.53916V6.18388C15.3 5.64379 15.0895 5.13579 14.7071 4.75259L11.4468 1.49228C11.0641 1.11039 10.5561 0.899902 10.016 0.899902H4.72495C3.6083 0.899902 2.69995 1.80825 2.69995 2.9249V14.1749C2.69995 15.2916 3.6083 16.1999 4.72495 16.1999H7.80332C8.17597 16.1999 8.47832 15.8976 8.47832 15.5249C8.47832 15.1522 8.17597 14.8499 7.80332 14.8499H4.72495C4.35274 14.8499 4.04995 14.5471 4.04995 14.1749V2.9249C4.04995 2.55269 4.35274 2.2499 4.72495 2.2499H8.99995V5.1749C8.99995 6.29155 9.9083 7.1999 11.025 7.1999ZM13.7522 5.70664C13.7932 5.74784 13.8186 5.80013 13.8476 5.8499H11.025C10.6527 5.8499 10.35 5.54712 10.35 5.1749V2.35224C10.3996 2.38108 10.4518 2.40635 10.4928 2.44722L13.7522 5.70664Z" fill="#292929"/>
<path id="iconPrimary_2" d="M13.5 9.44995C11.2632 9.44995 9.44995 11.2631 9.44995 13.5C9.44995 15.7368 11.2632 17.55 13.5 17.55C15.7367 17.55 17.55 15.7368 17.55 13.5C17.55 11.2631 15.7367 9.44995 13.5 9.44995ZM15.75 14.0625H14.0625V15.75C14.0625 16.0606 13.8106 16.3125 13.5 16.3125C13.1893 16.3125 12.9375 16.0606 12.9375 15.75V14.0625H11.25C10.9393 14.0625 10.6875 13.8106 10.6875 13.5C10.6875 13.1893 10.9393 12.9375 11.25 12.9375H12.9375V11.25C12.9375 10.9393 13.1893 10.6875 13.5 10.6875C13.8106 10.6875 14.0625 10.9393 14.0625 11.25V12.9375H15.75C16.0606 12.9375 16.3125 13.1893 16.3125 13.5C16.3125 13.8106 16.0606 14.0625 15.75 14.0625Z" fill="#292929"/>
</g>
</svg>
