<svg width="800" height="800" viewBox="0 0 800 800" fill="none" xmlns="http://www.w3.org/2000/svg">
<path d="M400 100C340.666 100 282.664 117.595 233.329 150.559C183.994 183.524 145.543 230.377 122.836 285.195C100.13 340.013 94.189 400.333 105.765 458.527C117.34 516.721 145.912 570.176 187.868 612.132C229.824 654.088 283.279 682.66 341.473 694.235C399.667 705.811 459.987 699.87 514.805 677.164C569.623 654.457 616.477 616.006 649.441 566.671C682.405 517.336 700 459.334 700 400C700 320.435 668.393 244.129 612.132 187.868C555.871 131.607 479.565 100 400 100ZM400 657.143C349.142 657.143 299.426 642.062 257.139 613.806C214.852 585.551 181.894 545.391 162.431 498.404C142.969 451.418 137.876 399.715 147.798 349.834C157.72 299.953 182.211 254.135 218.173 218.173C254.135 182.21 299.953 157.72 349.834 147.798C399.715 137.876 451.418 142.968 498.404 162.431C545.391 181.893 585.551 214.852 613.806 257.139C642.062 299.426 657.143 349.142 657.143 400C657.143 468.198 630.051 533.604 581.827 581.827C533.604 630.051 468.199 657.143 400 657.143ZM500.929 384.786C502.937 386.778 504.531 389.148 505.619 391.759C506.707 394.37 507.267 397.171 507.267 400C507.267 402.829 506.707 405.63 505.619 408.241C504.531 410.852 502.937 413.222 500.929 415.214L350.929 565.214C348.937 567.223 346.567 568.817 343.955 569.905C341.344 570.993 338.543 571.553 335.714 571.553C332.886 571.553 330.085 570.993 327.473 569.905C324.862 568.817 322.492 567.223 320.5 565.214C318.492 563.222 316.897 560.852 315.81 558.241C314.722 555.63 314.162 552.829 314.162 550C314.162 547.171 314.722 544.37 315.81 541.759C316.897 539.148 318.492 536.778 320.5 534.786L455.5 400L320.5 265.214C316.465 261.179 314.198 255.706 314.198 250C314.198 244.294 316.465 238.821 320.5 234.786C324.535 230.751 330.008 228.484 335.714 228.484C341.421 228.484 346.894 230.751 350.929 234.786L500.929 384.786Z" fill="black"/>
</svg>
