<svg width="18" height="18" viewBox="0 0 18 18" fill="none" xmlns="http://www.w3.org/2000/svg">
<g id="Frame">
<path id="iconPrimary" d="M16.2 3.8248V14.1748C16.2 15.2915 15.2917 16.1998 14.175 16.1998H3.82505C2.7084 16.1998 1.80005 15.2915 1.80005 14.1748V3.8248C1.80005 2.70816 2.7084 1.7998 3.82505 1.7998H14.175C15.2917 1.7998 16.2 2.70816 16.2 3.8248ZM14.85 3.8248C14.85 3.45259 14.5473 3.1498 14.175 3.1498H3.82505C3.45284 3.1498 3.15005 3.45259 3.15005 3.8248V14.1748C3.15005 14.547 3.45284 14.8498 3.82505 14.8498H14.175C14.5473 14.8498 14.85 14.547 14.85 14.1748V3.8248Z" fill="#292929"/>
<path id="iconPrimary_2" d="M12.3868 9.00014C12.3868 9.37939 12.0791 9.687 11.6999 9.687H9.68676V11.7001C9.68676 12.0794 9.37914 12.387 8.9999 12.387C8.62066 12.387 8.31304 12.0794 8.31304 11.7001V9.687H6.2999C5.92065 9.687 5.61304 9.37938 5.61304 9.00014C5.61304 8.6209 5.92066 8.31328 6.2999 8.31328H8.31304V6.30014C8.31304 5.92089 8.62066 5.61328 8.9999 5.61328C9.37914 5.61328 9.68676 5.9209 9.68676 6.30014V8.31328H11.6999C12.0791 8.31328 12.3868 8.6209 12.3868 9.00014Z" fill="#292929"/>
</g>
</svg>
